<?xml version="1.0" encoding="UTF-8"?>
<svg version="1.1" xmlns="http://www.w3.org/2000/svg" width="16" height="16">
<path d="M0 0 C5.28 0 10.56 0 16 0 C16 5.28 16 10.56 16 16 C10.72 16 5.44 16 0 16 C0 10.72 0 5.44 0 0 Z " fill="#C8C9F9" transform="translate(0,0)"/>
<path d="M0 0 C0.33 0 0.66 0 1 0 C1 2.97 1 5.94 1 9 C-4.28 9 -9.56 9 -15 9 C-15 7.35 -15 5.7 -15 4 C-10.545 3.505 -10.545 3.505 -6 3 C-6 2.34 -6 1.68 -6 1 C-4.35 1.33 -2.7 1.66 -1 2 C-0.67 1.34 -0.34 0.68 0 0 Z " fill="#C6CCFC" transform="translate(15,7)"/>
<path d="M0 0 C1.32 0 2.64 0 4 0 C4.33 0.66 4.66 1.32 5 2 C5.33 1.34 5.66 0.68 6 0 C6.99 0 7.98 0 9 0 C9.33 0.66 9.66 1.32 10 2 C10.33 1.34 10.66 0.68 11 0 C11.66 0 12.32 0 13 0 C12.34 1.65 11.68 3.3 11 5 C8.525 4.01 8.525 4.01 6 3 C6 3.66 6 4.32 6 5 C4.125 4.75 4.125 4.75 2 4 C0.75 1.9375 0.75 1.9375 0 0 Z " fill="#29C9CA" transform="translate(3,5)"/>
<path d="M0 0 C2.62187494 1.04874998 3.79371361 1.64931313 5.25 4.125 C5.4975 4.74375 5.745 5.3625 6 6 C3.69 6 1.38 6 -1 6 C-1.042721 4.33388095 -1.04063832 2.66617115 -1 1 C-0.67 0.67 -0.34 0.34 0 0 Z " fill="#C68C9E" transform="translate(1,5)"/>
</svg>
